<svg xmlns="http://www.w3.org/2000/svg" width="46" height="46" viewBox="0 0 100 100"><path d="M55.256 40.296l6.822 3.297 10.294-3.297v-5.969C72.372 22.016 62.336 12 50 12S27.628 22.016 27.628 34.327v31.346c0 2.892-2.358 5.244-5.256 5.244s-5.255-2.353-5.255-5.244V52.548H0v13.125C0 77.984 10.036 88 22.372 88c12.337 0 22.372-10.016 22.372-22.327V34.327c0-2.892 2.358-5.244 5.256-5.244s5.256 2.353 5.256 5.244v5.969zm27.627 12.252v13.125c0 2.892-2.357 5.244-5.255 5.244s-5.256-2.353-5.256-5.244V52.284l-10.294 3.297-6.822-3.297v13.389C55.256 77.984 65.291 88 77.628 88 89.963 88 100 77.984 100 65.673V52.548H82.883z" fill="#ccc"/></svg>